<svg width="204" height="121" viewBox="0 0 204 121" xmlns="http://www.w3.org/2000/svg">
    <g id="Sign-In" fill="none" fillRule="evenodd">
        <g id="Dashboard" transform="translate(-86 -545)" fill="#FFF">
            <g id="Group" transform="translate(86 545)">
                <path d="M127.316147,104.673558 C128.013873,104.985813 128.5,105.686136 128.5,106.5 C128.5,107.384501 127.925827,108.134897 127.129873,108.398797 C127.057392,108.472706 126.978224,108.54193 126.892496,108.6056 L110.933884,120.458227 C110.047135,121.116825 108.794385,120.931872 108.135787,120.045123 C107.47719,119.158374 107.662143,117.905624 108.548892,117.247026 L120.326062,108.5 L65.5,108.5 C64.3954305,108.5 63.5,107.604569 63.5,106.5 C63.5,105.395431 64.3954305,104.5 65.5,104.5 L120.524488,104.5 L108.548892,95.6056005 C107.662143,94.947003 107.47719,93.6942525 108.135787,92.8075038 C108.794385,91.9207552 110.047135,91.7358021 110.933884,92.3943995 L126.892496,104.247026 C127.058669,104.370445 127.200197,104.514728 127.316147,104.673558 Z"
                id="Combined-Shape" fillRule="nonzero" />
                <path d="M15.3213999,59.248 C16.6414065,59.7040023 17.7273957,60.4539948 18.5793999,61.498 C19.4314042,62.5420052 19.8573999,63.9039916 19.8573999,65.584 C19.8573999,68.2480133 19.0834077,70.1499943 17.5353999,71.29 C15.9873922,72.4300057 14.0974111,73 11.8653999,73 L2.61339992,73 C2.13339752,73 1.7254016,72.8320017 1.38939992,72.496 C1.05339824,72.1599983 0.88539992,71.7520024 0.88539992,71.272 L0.88539992,49.528 C0.88539992,49.0479976 1.05339824,48.6400017 1.38939992,48.304 C1.7254016,47.9679983 2.13339752,47.8 2.61339992,47.8 L11.8653999,47.8 C14.0494108,47.8 15.7113942,48.3399946 16.8513999,49.42 C17.9914056,50.5000054 18.5613999,52.0599898 18.5613999,54.1 C18.5613999,55.2520058 18.2854027,56.2779955 17.7333999,57.178 C17.1813972,58.0780045 16.3774052,58.7679976 15.3213999,59.248 Z M14.8533999,54.64 C14.8533999,53.5119944 14.547403,52.6540029 13.9353999,52.066 C13.3233969,51.4779971 12.4654054,51.184 11.3613999,51.184 L4.55739992,51.184 L4.55739992,58.204 L11.4333999,58.204 C12.4174048,58.1799999 13.2333967,57.8620031 13.8813999,57.25 C14.5294032,56.6379969 14.8533999,55.7680056 14.8533999,54.64 Z M11.8293999,69.688 C13.1494065,69.688 14.205396,69.3460034 14.9973999,68.662 C15.7894039,67.9779966 16.1853999,66.9520068 16.1853999,65.584 C16.1853999,62.9199867 14.673415,61.588 11.6493999,61.588 L4.55739992,61.588 L4.55739992,69.688 L11.8293999,69.688 Z M37.5585999,54.136 C38.0626025,54.136 38.4765983,54.3039983 38.8005999,54.64 C39.1246016,54.9760017 39.2865999,55.3839976 39.2865999,55.864 L39.2865999,65.44 C39.2865999,67.9360125 38.5966068,69.8739931 37.2165999,71.254 C35.836593,72.6340069 33.8866125,73.324 31.3665999,73.324 C28.8705875,73.324 26.9386068,72.6340069 25.5705999,71.254 C24.2025931,69.8739931 23.5185999,67.9360125 23.5185999,65.44 L23.5185999,55.864 C23.5185999,55.3839976 23.6805983,54.9760017 24.0045999,54.64 C24.3286016,54.3039983 24.7305975,54.136 25.2105999,54.136 C25.7146025,54.136 26.1285983,54.3039983 26.4525999,54.64 C26.7766016,54.9760017 26.9385999,55.3839976 26.9385999,55.864 L26.9385999,65.44 C26.9385999,68.5840157 28.4145852,70.156 31.3665999,70.156 C32.8306073,70.156 33.9465961,69.760004 34.7145999,68.968 C35.4826038,68.175996 35.8665999,67.0000078 35.8665999,65.44 L35.8665999,55.864 C35.8665999,55.3839976 36.0285983,54.9760017 36.3525999,54.64 C36.6766016,54.3039983 37.0785975,54.136 37.5585999,54.136 Z M57.9957999,53.956 C58.4998025,53.956 58.9137983,54.1239983 59.2377999,54.46 C59.5618016,54.7960017 59.7237999,55.2039976 59.7237999,55.684 L59.7237999,71.236 C59.7237999,74.236015 58.8958082,76.4799926 57.2397999,77.968 C55.5837917,79.4560074 53.3998135,80.2 50.6877999,80.2 C49.7997955,80.2 48.9238043,80.1160008 48.0597999,79.948 C47.1957956,79.7799992 46.4878027,79.5520014 45.9357999,79.264 C45.0477955,78.855998 44.6037999,78.3040035 44.6037999,77.608 C44.6037999,77.4879994 44.6277997,77.332001 44.6757999,77.14 C44.8198007,76.731998 45.0237986,76.4200011 45.2877999,76.204 C45.5518013,75.9879989 45.8517983,75.88 46.1877999,75.88 C46.3798009,75.88 46.5597991,75.9159996 46.7277999,75.988 C47.4718037,76.3240017 48.1317971,76.587999 48.7077999,76.78 C49.2838028,76.972001 49.9557961,77.068 50.7237999,77.068 C54.4438185,77.068 56.3037999,75.1600191 56.3037999,71.344 L56.3037999,70.624 C55.6557967,71.4880043 54.821805,72.1599976 53.8017999,72.64 C52.7817948,73.1200024 51.6118065,73.36 50.2917999,73.36 C48.29979,73.36 46.7458055,72.7240064 45.6297999,71.452 C44.5137944,70.1799936 43.9557999,68.5120103 43.9557999,66.448 L43.9557999,55.684 C43.9557999,55.1799975 44.1117984,54.7660016 44.4237999,54.442 C44.7358015,54.1179984 45.1437974,53.956 45.6477999,53.956 C46.1518025,53.956 46.5657983,54.1239983 46.8897999,54.46 C47.2138016,54.7960017 47.3757999,55.2039976 47.3757999,55.684 L47.3757999,65.548 C47.3757999,67.1320079 47.7237965,68.3019962 48.4197999,69.058 C49.1158034,69.8140038 50.1717929,70.192 51.5877999,70.192 C52.9558068,70.192 54.0837955,69.7600043 54.9717999,68.896 C55.8598044,68.0319957 56.3037999,66.9160068 56.3037999,65.548 L56.3037999,55.684 C56.3037999,55.1799975 56.4597984,54.7660016 56.7717999,54.442 C57.0838015,54.1179984 57.4917974,53.956 57.9957999,53.956 Z M89.1142,54.604 C89.4262015,54.604 89.684199,54.7119989 89.8882,54.928 C90.092201,55.1440011 90.1942,55.4079984 90.1942,55.72 L90.1942,71.92 C90.1942,72.2320016 90.092201,72.489999 89.8882,72.694 C89.684199,72.898001 89.4262015,73 89.1142,73 C88.8021984,73 88.544201,72.898001 88.3402,72.694 C88.136199,72.489999 88.0342,72.2320016 88.0342,71.92 L88.0342,69.508 C87.434197,70.5880054 86.534206,71.4999963 85.3342,72.244 C84.134194,72.9880037 82.8262071,73.36 81.4102,73.36 C79.8021919,73.36 78.3562064,72.9400042 77.0722,72.1 C75.7881936,71.2599958 74.7802036,70.1080073 74.0482,68.644 C73.3161963,67.1799927 72.9502,65.5360091 72.9502,63.712 C72.9502,61.8879909 73.3221963,60.2500073 74.0662,58.798 C74.8102037,57.3459927 75.8241936,56.2120041 77.1082,55.396 C78.3922064,54.5799959 79.8141922,54.172 81.3742,54.172 C82.8142072,54.172 84.134194,54.5199965 85.3342,55.216 C86.534206,55.9120035 87.434197,56.8239944 88.0342,57.952 L88.0342,55.72 C88.0342,55.4079984 88.136199,55.1440011 88.3402,54.928 C88.544201,54.7119989 88.8021984,54.604 89.1142,54.604 Z M81.6262,71.344 C82.8742062,71.344 83.996195,71.0140033 84.9922,70.354 C85.988205,69.6939967 86.7681972,68.7820058 87.3322,67.618 C87.8962028,66.4539942 88.1782,65.1520072 88.1782,63.712 C88.1782,62.319993 87.8962028,61.0480058 87.3322,59.896 C86.7681972,58.7439942 85.988205,57.8380033 84.9922,57.178 C83.996195,56.5179967 82.8742062,56.188 81.6262,56.188 C80.3781937,56.188 79.256205,56.5119968 78.2602,57.16 C77.264195,57.8080032 76.4842028,58.7019943 75.9202,59.842 C75.3561972,60.9820057 75.0742,62.2719928 75.0742,63.712 C75.0742,65.1520072 75.3501972,66.4539942 75.9022,67.618 C76.4542027,68.7820058 77.228195,69.6939967 78.2242,70.354 C79.220205,71.0140033 80.3541936,71.344 81.6262,71.344 Z M112.7446,54.172 C113.872606,54.172 114.922595,54.2979987 115.8946,54.55 C116.866605,54.8020013 117.646597,55.1439978 118.2346,55.576 C118.822603,56.0080022 119.1166,56.4759975 119.1166,56.98 C119.1166,57.2440013 119.026601,57.4839989 118.8466,57.7 C118.666599,57.9160011 118.444601,58.024 118.1806,58.024 C117.940599,58.024 117.742601,57.9760005 117.5866,57.88 C117.430599,57.7839995 117.256601,57.640001 117.0646,57.448 C116.752598,57.1359984 116.452601,56.9080007 116.1646,56.764 C115.804598,56.5959992 115.330603,56.4580005 114.7426,56.35 C114.154597,56.2419995 113.524603,56.188 112.8526,56.188 C111.532593,56.188 110.326605,56.5239966 109.2346,57.196 C108.142595,57.8680034 107.284603,58.7799942 106.6606,59.932 C106.036597,61.0840058 105.7246,62.355993 105.7246,63.748 C105.7246,65.1880072 106.024597,66.4839942 106.6246,67.636 C107.224603,68.7880058 108.058595,69.6939967 109.1266,70.354 C110.194605,71.0140033 111.412593,71.344 112.7806,71.344 C113.644604,71.344 114.334597,71.2720007 114.8506,71.128 C115.366603,70.9839993 115.876597,70.7800013 116.3806,70.516 C116.548601,70.4199995 116.836598,70.2040017 117.2446,69.868 C117.436601,69.6999992 117.604599,69.5740004 117.7486,69.49 C117.892601,69.4059996 118.048599,69.364 118.2166,69.364 C118.504601,69.364 118.732599,69.4539991 118.9006,69.634 C119.068601,69.8140009 119.1526,70.0479986 119.1526,70.336 C119.1526,70.744002 118.864603,71.1819977 118.2886,71.65 C117.712597,72.1180023 116.920605,72.5199983 115.9126,72.856 C114.904595,73.1920017 113.788606,73.36 112.5646,73.36 C110.812591,73.36 109.252607,72.9460041 107.8846,72.118 C106.516593,71.2899959 105.454604,70.1440073 104.6986,68.68 C103.942596,67.2159927 103.5646,65.5720091 103.5646,63.748 C103.5646,61.9959912 103.948596,60.3940073 104.7166,58.942 C105.484604,57.4899927 106.564593,56.3320043 107.9566,55.468 C109.348607,54.6039957 110.944591,54.172 112.7446,54.172 Z M139.8418,63.784 C139.8418,65.584009 139.445804,67.2159927 138.6538,68.68 C137.861796,70.1440073 136.769807,71.2899959 135.3778,72.118 C133.985793,72.9460041 132.437809,73.36 130.7338,73.36 C129.029792,73.36 127.481807,72.9460041 126.0898,72.118 C124.697793,71.2899959 123.605804,70.1440073 122.8138,68.68 C122.021796,67.2159927 121.6258,65.584009 121.6258,63.784 C121.6258,61.983991 122.021796,60.3520073 122.8138,58.888 C123.605804,57.4239927 124.697793,56.2720042 126.0898,55.432 C127.481807,54.5919958 129.029792,54.172 130.7338,54.172 C132.437809,54.172 133.985793,54.5919958 135.3778,55.432 C136.769807,56.2720042 137.861796,57.4239927 138.6538,58.888 C139.445804,60.3520073 139.8418,61.983991 139.8418,63.784 Z M137.6818,63.784 C137.6818,62.3439928 137.381803,61.0480058 136.7818,59.896 C136.181797,58.7439942 135.347805,57.8380033 134.2798,57.178 C133.211795,56.5179967 132.029807,56.188 130.7338,56.188 C129.437794,56.188 128.261805,56.5179967 127.2058,57.178 C126.149795,57.8380033 125.315803,58.7439942 124.7038,59.896 C124.091797,61.0480058 123.7858,62.3439928 123.7858,63.784 C123.7858,65.2000071 124.091797,66.4839942 124.7038,67.636 C125.315803,68.7880058 126.149795,69.6939967 127.2058,70.354 C128.261805,71.0140033 129.437794,71.344 130.7338,71.344 C132.029807,71.344 133.211795,71.0200032 134.2798,70.372 C135.347805,69.7239968 136.181797,68.8240058 136.7818,67.672 C137.381803,66.5199942 137.6818,65.2240072 137.6818,63.784 Z M150.235,48.412 C149.466996,48.412 148.873002,48.6639975 148.453,49.168 C148.032998,49.6720025 147.823,50.3679956 147.823,51.256 L147.823,54.964 L151.855,54.964 C152.119001,54.964 152.352999,55.059999 152.557,55.252 C152.761001,55.444001 152.863,55.6839986 152.863,55.972 C152.863,56.2600014 152.761001,56.499999 152.557,56.692 C152.352999,56.884001 152.119001,56.98 151.855,56.98 L147.823,56.98 L147.823,71.92 C147.823,72.2320016 147.721001,72.489999 147.517,72.694 C147.312999,72.898001 147.055002,73 146.743,73 C146.430998,73 146.173001,72.898001 145.969,72.694 C145.764999,72.489999 145.663,72.2320016 145.663,71.92 L145.663,56.98 L143.035,56.98 C142.746999,56.98 142.507001,56.878001 142.315,56.674 C142.122999,56.469999 142.027,56.2360013 142.027,55.972 C142.027,55.6599984 142.122999,55.4140009 142.315,55.234 C142.507001,55.0539991 142.746999,54.964 143.035,54.964 L145.663,54.964 L145.663,51.256 C145.663,49.7439924 146.100996,48.5740041 146.977,47.746 C147.853004,46.9179959 149.022993,46.504 150.487,46.504 C151.159003,46.504 151.782997,46.605999 152.359,46.81 C152.935003,47.014001 153.223,47.3439977 153.223,47.8 C153.223,48.0880014 153.127001,48.327999 152.935,48.52 C152.742999,48.712001 152.527001,48.808 152.287,48.808 C152.070999,48.808 151.807002,48.7480006 151.495,48.628 C150.966997,48.4839993 150.547002,48.412 150.235,48.412 Z M162.943,48.412 C162.174996,48.412 161.581002,48.6639975 161.161,49.168 C160.740998,49.6720025 160.531,50.3679956 160.531,51.256 L160.531,54.964 L164.563,54.964 C164.827001,54.964 165.060999,55.059999 165.265,55.252 C165.469001,55.444001 165.571,55.6839986 165.571,55.972 C165.571,56.2600014 165.469001,56.499999 165.265,56.692 C165.060999,56.884001 164.827001,56.98 164.563,56.98 L160.531,56.98 L160.531,71.92 C160.531,72.2320016 160.429001,72.489999 160.225,72.694 C160.020999,72.898001 159.763002,73 159.451,73 C159.138998,73 158.881001,72.898001 158.677,72.694 C158.472999,72.489999 158.371,72.2320016 158.371,71.92 L158.371,56.98 L155.743,56.98 C155.454999,56.98 155.215001,56.878001 155.023,56.674 C154.830999,56.469999 154.735,56.2360013 154.735,55.972 C154.735,55.6599984 154.830999,55.4140009 155.023,55.234 C155.215001,55.0539991 155.454999,54.964 155.743,54.964 L158.371,54.964 L158.371,51.256 C158.371,49.7439924 158.808996,48.5740041 159.685,47.746 C160.561004,46.9179959 161.730993,46.504 163.195,46.504 C163.867003,46.504 164.490997,46.605999 165.067,46.81 C165.643003,47.014001 165.931,47.3439977 165.931,47.8 C165.931,48.0880014 165.835001,48.327999 165.643,48.52 C165.450999,48.712001 165.235001,48.808 164.995,48.808 C164.778999,48.808 164.515002,48.7480006 164.203,48.628 C163.674997,48.4839993 163.255002,48.412 162.943,48.412 Z M184.3522,62.74 C184.3522,63.0280014 184.244201,63.273999 184.0282,63.478 C183.812199,63.682001 183.560201,63.784 183.2722,63.784 L169.6642,63.784 C169.6642,65.2240072 169.958197,66.5139943 170.5462,67.654 C171.134203,68.7940057 171.974195,69.6939967 173.0662,70.354 C174.158206,71.0140033 175.448193,71.344 176.9362,71.344 C178.088206,71.344 179.120195,71.1040024 180.0322,70.624 C180.944205,70.1439976 181.676197,69.5320037 182.2282,68.788 C182.492201,68.5719989 182.744199,68.464 182.9842,68.464 C183.224201,68.464 183.440199,68.559999 183.6322,68.752 C183.824201,68.944001 183.9202,69.1599988 183.9202,69.4 C183.9202,69.6640013 183.800201,69.9159988 183.5602,70.156 C182.792196,71.0920047 181.826206,71.859997 180.6622,72.46 C179.498194,73.060003 178.268207,73.36 176.9722,73.36 C175.124191,73.36 173.492207,72.964004 172.0762,72.172 C170.660193,71.379996 169.556204,70.2700071 168.7642,68.842 C167.972196,67.4139929 167.5762,65.7640094 167.5762,63.892 C167.5762,61.9239902 167.966196,60.2020074 168.7462,58.726 C169.526204,57.2499926 170.564194,56.1220039 171.8602,55.342 C173.156207,54.5619961 174.536193,54.172 176.0002,54.172 C177.440207,54.172 178.790194,54.5079966 180.0502,55.18 C181.310206,55.8520034 182.336196,56.8359935 183.1282,58.132 C183.920204,59.4280065 184.3282,60.9639911 184.3522,62.74 Z M176.0002,56.26 C174.608193,56.26 173.318206,56.7399952 172.1302,57.7 C170.942194,58.6600048 170.180202,60.039991 169.8442,61.84 L182.1202,61.84 L182.1202,61.552 C182.000199,60.4719946 181.640203,59.530004 181.0402,58.726 C180.440197,57.921996 179.690205,57.3100021 178.7902,56.89 C177.890196,56.4699979 176.960205,56.26 176.0002,56.26 Z M203.9254,62.74 C203.9254,63.0280014 203.817401,63.273999 203.6014,63.478 C203.385399,63.682001 203.133402,63.784 202.8454,63.784 L189.2374,63.784 C189.2374,65.2240072 189.531397,66.5139943 190.1194,67.654 C190.707403,68.7940057 191.547395,69.6939967 192.6394,70.354 C193.731406,71.0140033 195.021393,71.344 196.5094,71.344 C197.661406,71.344 198.693396,71.1040024 199.6054,70.624 C200.517405,70.1439976 201.249397,69.5320037 201.8014,68.788 C202.065401,68.5719989 202.317399,68.464 202.5574,68.464 C202.797401,68.464 203.013399,68.559999 203.2054,68.752 C203.397401,68.944001 203.4934,69.1599988 203.4934,69.4 C203.4934,69.6640013 203.373401,69.9159988 203.1334,70.156 C202.365396,71.0920047 201.399406,71.859997 200.2354,72.46 C199.071394,73.060003 197.841407,73.36 196.5454,73.36 C194.697391,73.36 193.065407,72.964004 191.6494,72.172 C190.233393,71.379996 189.129404,70.2700071 188.3374,68.842 C187.545396,67.4139929 187.1494,65.7640094 187.1494,63.892 C187.1494,61.9239902 187.539396,60.2020074 188.3194,58.726 C189.099404,57.2499926 190.137394,56.1220039 191.4334,55.342 C192.729407,54.5619961 194.109393,54.172 195.5734,54.172 C197.013407,54.172 198.363394,54.5079966 199.6234,55.18 C200.883406,55.8520034 201.909396,56.8359935 202.7014,58.132 C203.493404,59.4280065 203.9014,60.9639911 203.9254,62.74 Z M195.5734,56.26 C194.181393,56.26 192.891406,56.7399952 191.7034,57.7 C190.515394,58.6600048 189.753402,60.039991 189.4174,61.84 L201.6934,61.84 L201.6934,61.552 C201.573399,60.4719946 201.213403,59.530004 200.6134,58.726 C200.013397,57.921996 199.263405,57.3100021 198.3634,56.89 C197.463396,56.4699979 196.533405,56.26 195.5734,56.26 Z"
                id="Buy-a-coffee" />
                <path d="M89.6057968,8.44729606 L107.326424,8.44729606 C108.201749,8.44729606 108.91134,9.15688731 108.91134,10.0322125 L108.91134,10.7020597 C108.91134,11.5773848 108.201749,12.2869761 107.326424,12.2869761 L89.6057968,12.2869761 C88.7304717,12.2869761 88.0208804,11.5773848 88.0208804,10.7020597 L88.0208804,10.0322125 C88.0208804,9.15688731 88.7304717,8.44729606 89.6057968,8.44729606 Z M102.639685,32.16032 C102.664263,32.1398939 102.693971,32.1121708 102.726902,32.0768033 C102.943985,31.8436552 103.111476,31.4774243 103.154863,31.0832457 L106.126751,4.08324571 C106.133871,4.0185667 106.13385,4.01850646 106.112812,3.99708159 C106.030181,3.91292728 105.849141,3.83968003 105.556182,3.83968003 L83.4438184,3.83968003 C83.1508589,3.83968003 82.9698185,3.91292728 82.8871875,3.99708159 C82.8661505,4.01850646 82.8661293,4.0185667 82.8732485,4.08324571 L85.8451372,31.0832457 C85.8885244,31.4774243 86.0560146,31.8436552 86.2730981,32.0768033 C86.3060287,32.1121708 86.3357366,32.1398939 86.3603152,32.16032 L102.639685,32.16032 Z M102.588096,32.1978009 C102.586184,32.1986604 102.584343,32.1995225 102.582572,32.2003858 C102.587192,32.1981333 102.592834,32.1948778 102.599392,32.1906002 L102.588096,32.1978009 Z M83.4438184,0 L105.556182,0 C108.270031,0 110.24828,2.01471863 109.974725,4.5 L107.002837,31.5 C106.729282,33.9852814 104.853383,36 102.8129,36 L86.1871003,36 C84.1466168,36 82.2707182,33.9852814 81.9971634,31.5 L79.0252747,4.5 C78.75172,2.01471863 80.7299693,0 83.4438184,0 Z M106.502194,6.16201106 C106.716268,6.67380249 106.978671,7.37958275 107.289402,8.27935186 L103.968698,9.57552242 L103.572957,8.48961928 C104.960379,8.36640905 105.701922,7.68957243 105.797586,6.45910943 C105.798634,6.43723856 105.799806,6.41486635 105.801104,6.3919928 C105.805553,6.31354182 105.807914,6.23688125 105.808187,6.16201106 C105.807914,6.08714088 105.805553,6.0104803 105.801104,5.93202933 C105.799806,5.90915578 105.798634,5.88678356 105.797586,5.8649127 C105.701922,4.63444969 104.960379,3.95761308 103.572957,3.83440285 L103.968698,2.74849971 L107.289402,4.04467026 C106.978671,4.94443937 106.716268,5.65021964 106.502194,6.16201106 Z M85.362554,3.84911491 C83.7883422,3.98891307 83.0456267,4.84144305 83.1344077,6.40670486 C83.2231887,7.97196666 82.7270893,7.18952582 81.6461096,4.05938232 L84.9668135,2.76321177 L85.362554,3.84911491 Z M102.623391,12.3117005 L103.019131,11.2257974 L106.339835,12.521968 C105.258856,15.6521115 104.762756,16.4345523 104.851537,14.8692905 C104.940318,13.3040287 104.197603,12.4514987 102.623391,12.3117005 Z M100.813544,32.1398146 C102.393745,32.1653323 103.221506,31.3951074 103.296826,29.8291402 C103.372145,28.2631729 103.78374,29.0931839 104.531609,32.3191733 L101.093609,33.2611352 L100.813544,32.1398146 Z M88.1844856,32.1660936 L87.9044208,33.2874142 L84.4664214,32.3454523 C85.2142902,29.1194629 85.6258846,28.2894518 85.7012044,29.8554191 C85.7765242,31.4213864 86.6042846,32.1916112 88.1844856,32.1660936 Z"
                 fillRule="nonzero" />
            </g>
        </g>
    </g>
</svg>
