<svg width="660" height="431" viewBox="0 0 660 431" xmlns="http://www.w3.org/2000/svg">
    <g id="Page-1" fill="none" fillRule="evenodd">
        <g id="splash" transform="translate(-291 -870)" fill="#fff">
            <g id="logo" transform="translate(291 870)">
                <path d="M524.4204,340.4362 C517.119563,340.4362 511.538719,338.751417 507.6777,335.3818 C503.816681,332.012183 501.8862,328.221421 501.8862,324.0094 C501.8862,320.358982 503.219987,317.200013 505.8876,314.5324 C508.555213,311.864787 512.486374,310.531 517.6812,310.531 C519.506409,310.531 521.647488,310.706498 524.1045,311.0575 C526.561512,311.408502 528.421794,311.654199 529.6854,311.7946 C529.544999,308.144182 528.737707,304.704416 527.2635,301.4752 C525.789293,298.245984 523.929011,295.122115 521.6826,292.1035 C519.436189,289.084885 517.33021,286.452411 515.3646,284.206 C511.012178,292.489641 506.694921,299.369173 502.4127,304.8448 C498.130479,310.320427 493.462225,315.515175 488.4078,320.4292 C485.880587,322.956413 483.213014,324.22 480.405,324.22 C478.158589,324.22 476.333407,323.412708 474.9294,321.7981 C473.525393,320.183492 472.8234,318.182812 472.8234,315.796 C472.8234,312.987986 473.80619,310.390612 475.7718,308.0038 L478.5096,304.6342 C486.231639,295.086952 492.05818,287.224631 495.9894,281.047 C498.376212,276.97538 501.184184,271.534934 504.4134,264.7255 C507.642616,257.916066 510.801585,250.861037 513.8904,243.5602 C516.558013,237.382569 522.103758,234.2938 530.5278,234.2938 C534.45902,234.2938 537.196792,234.644796 538.7412,235.3468 C540.285608,236.048804 541.0578,237.171992 541.0578,238.7164 C541.0578,239.558804 540.777003,240.892591 540.2154,242.7178 C539.653797,244.543009 538.881605,246.368191 537.8988,248.1934 C535.371587,253.247825 534.108,257.529982 534.108,261.04 C534.108,263.146011 534.845093,265.462587 536.3193,267.9898 C537.793507,270.517013 540.074985,273.675981 543.1638,277.4668 C547.656622,283.363629 551.061288,288.382879 553.3779,292.5247 C555.694512,296.666521 556.8528,301.194375 556.8528,306.1084 C556.8528,307.512407 556.712401,309.477987 556.4316,312.0052 C563.311234,309.337587 571.384154,302.247458 580.6506,290.7346 C582.335408,288.76899 584.230789,287.7862 586.3368,287.7862 C588.162009,287.7862 589.601095,288.628592 590.6541,290.3134 C591.707105,291.998208 592.2336,294.314785 592.2336,297.2632 C592.2336,302.598427 590.899813,306.950783 588.2322,310.3204 C581.212165,319.025244 574.508132,324.957084 568.1199,328.1161 C561.731668,331.275116 553.834247,332.994999 544.4274,333.2758 C538.811372,338.049424 532.142439,340.4362 524.4204,340.4362 Z"
                id="javvest" />
                <path d="M609.924,256.6174 C609.643199,263.637435 609.5028,269.11298 609.5028,273.0442 C609.5028,283.153051 610.029295,291.050472 611.0823,296.7367 C612.135305,302.422928 613.890288,306.494488 616.3473,308.9515 C618.804312,311.408512 622.208978,312.637 626.5614,312.637 C628.807811,312.637 631.475385,311.935007 634.5642,310.531 C637.653015,309.126993 640.460987,307.301811 642.9882,305.0554 C644.532608,303.651393 646.076992,302.9494 647.6214,302.9494 C649.306208,302.9494 650.675095,303.897091 651.7281,305.7925 C652.781105,307.687909 653.3076,309.969387 653.3076,312.637 C653.3076,315.304613 652.781105,317.901987 651.7281,320.4292 C650.675095,322.956413 649.095611,325.062392 646.9896,326.7472 C639.688763,332.78443 631.405246,335.803 622.1388,335.803 C608.800733,335.803 599.043031,330.222156 592.8654,319.0603 C586.687769,307.898444 583.599,293.33209 583.599,275.3608 C583.599,269.183169 583.809598,262.935432 584.2308,256.6174 L576.0174,256.6174 C571.805379,256.6174 568.962307,255.845208 567.4881,254.3008 C566.013893,252.756392 565.2768,250.299417 565.2768,246.9298 C565.2768,239.067361 568.435768,235.1362 574.7538,235.1362 L586.758,235.1362 C589.144812,219.692123 592.795175,205.582064 597.7092,192.8056 C602.623225,180.029136 608.555065,169.850238 615.5049,162.2686 C622.454735,154.686962 629.93096,150.8962 637.9338,150.8962 C643.830629,150.8962 648.463783,153.493574 651.8334,158.6884 C655.203017,163.883226 656.8878,170.411761 656.8878,178.2742 C656.8878,200.036309 647.761891,218.990119 629.5098,235.1362 L653.097,235.1362 C655.343411,235.1362 656.957995,235.627595 657.9408,236.6104 C658.923605,237.593205 659.415,239.418387 659.415,242.086 C659.415,251.773648 651.482479,256.6174 635.6172,256.6174 L609.924,256.6174 Z M632.2476,171.1138 C630.141589,171.1138 627.789913,173.746274 625.1925,179.0113 C622.595087,184.276326 620.138112,191.577053 617.8215,200.9137 C615.504888,210.250347 613.574408,220.604743 612.03,231.9772 C620.313641,224.816764 626.526279,216.778945 630.6681,207.8635 C634.809921,198.948055 636.8808,190.840037 636.8808,183.5392 C636.8808,175.255559 635.336415,171.1138 632.2476,171.1138 Z"
                id="Combined-Shape" />
                <path d="M496.4106,287.7862 C498.235809,287.7862 499.674895,288.628592 500.7279,290.3134 C501.780905,291.998208 502.3074,294.314785 502.3074,297.2632 C502.3074,302.879228 500.973613,307.231585 498.306,310.3204 C493.111174,316.638432 485.775347,322.464973 476.2983,327.8002 C466.821253,333.135427 456.677454,335.803 445.8666,335.803 C431.124526,335.803 419.682041,331.80164 411.5388,323.7988 C403.395559,315.79596 399.324,304.844869 399.324,290.9452 C399.324,281.257552 401.35978,272.236942 405.4314,263.8831 C409.50302,255.529258 415.154064,248.895425 422.3847,243.9814 C429.615336,239.067375 437.793554,236.6104 446.9196,236.6104 C455.062841,236.6104 461.591375,239.032276 466.5054,243.8761 C471.419425,248.719924 473.8764,255.283559 473.8764,263.5672 C473.8764,273.254848 470.401535,281.573465 463.4517,288.5233 C456.501865,295.473135 444.743483,300.98378 428.1762,305.0554 C431.686218,311.513832 438.355151,314.743 448.1832,314.743 C454.501232,314.743 461.69666,312.531722 469.7697,308.1091 C477.84274,303.686478 484.827571,297.895036 490.7244,290.7346 C492.409208,288.76899 494.304589,287.7862 496.4106,287.7862 Z M443.3394,257.2492 C438.144574,257.2492 433.757118,260.26777 430.1769,266.305 C426.596682,272.34223 424.8066,279.642957 424.8066,288.2074 L424.8066,288.6286 C433.090241,286.66299 439.618776,283.71462 444.3924,279.7834 C449.166024,275.85218 451.5528,271.289226 451.5528,266.0944 C451.5528,263.426787 450.815707,261.285708 449.3415,259.6711 C447.867293,258.056492 445.866613,257.2492 443.3394,257.2492 Z"
                id="Combined-Shape" />
                <path d="M412.1706,270.7276 C412.591802,270.587199 413.293795,270.517 414.2766,270.517 C416.382611,270.517 417.997194,271.218993 419.1204,272.623 C420.243606,274.027007 420.8052,275.922388 420.8052,278.3092 C420.8052,282.661622 419.962808,286.066288 418.278,288.5233 C416.593192,290.980312 414.066017,292.770394 410.6964,293.8936 C404.237968,295.999611 397.358437,297.0526 390.0576,297.0526 C383.879969,297.0526 378.053427,296.210208 372.5778,294.5254 C368.50618,301.124233 364.013425,307.933565 359.0994,314.9536 C353.483372,322.95644 348.63962,328.431985 344.568,331.3804 C340.49638,334.328815 335.863226,335.803 330.6684,335.803 C324.911971,335.803 320.384116,333.556622 317.0847,329.0638 C313.785284,324.570978 311.714404,317.480848 310.872,307.7932 C309.187192,288.137102 308.3448,270.938274 308.3448,256.1962 L308.3448,248.8252 C308.485201,244.191977 309.748788,240.962809 312.1356,239.1376 C314.522412,237.312391 318.102576,236.3998 322.8762,236.3998 C326.526618,236.3998 329.229291,237.207092 330.9843,238.8217 C332.739309,240.436308 333.6168,243.138981 333.6168,246.9298 C333.6168,263.075881 334.59959,284.065471 336.5652,309.8992 C344.989242,297.403538 351.307179,287.435237 355.5192,279.994 C353.413189,275.92238 352.3602,271.078628 352.3602,265.4626 C352.3602,260.688976 353.413189,256.055822 355.5192,251.563 C357.625211,247.070178 360.503382,243.419814 364.1538,240.6118 C367.804218,237.803786 371.945977,236.3998 376.5792,236.3998 C380.65082,236.3998 383.950187,237.838886 386.4774,240.7171 C389.004613,243.595314 390.2682,247.772173 390.2682,253.2478 C390.2682,259.565832 388.583417,266.796359 385.2138,274.9396 C390.549027,274.658799 397.639156,273.605809 406.4844,271.7806 L412.1706,270.7276 Z"
                id="Path" />
                <path d="M315.5052,270.7276 C315.926402,270.587199 316.628395,270.517 317.6112,270.517 C319.717211,270.517 321.331794,271.218993 322.455,272.623 C323.578206,274.027007 324.1398,275.922388 324.1398,278.3092 C324.1398,282.661622 323.297408,286.066288 321.6126,288.5233 C319.927792,290.980312 317.400617,292.770394 314.031,293.8936 C307.572568,295.999611 300.693037,297.0526 293.3922,297.0526 C287.214569,297.0526 281.388027,296.210208 275.9124,294.5254 C271.84078,301.124233 267.348025,307.933565 262.434,314.9536 C256.817972,322.95644 251.97422,328.431985 247.9026,331.3804 C243.83098,334.328815 239.197826,335.803 234.003,335.803 C228.246571,335.803 223.718716,333.556622 220.4193,329.0638 C217.119884,324.570978 215.049004,317.480848 214.2066,307.7932 C212.521792,288.137102 211.6794,270.938274 211.6794,256.1962 L211.6794,248.8252 C211.819801,244.191977 213.083388,240.962809 215.4702,239.1376 C217.857012,237.312391 221.437176,236.3998 226.2108,236.3998 C229.861218,236.3998 232.563891,237.207092 234.3189,238.8217 C236.073909,240.436308 236.9514,243.138981 236.9514,246.9298 C236.9514,263.075881 237.93419,284.065471 239.8998,309.8992 C248.323842,297.403538 254.641779,287.435237 258.8538,279.994 C256.747789,275.92238 255.6948,271.078628 255.6948,265.4626 C255.6948,260.688976 256.747789,256.055822 258.8538,251.563 C260.959811,247.070178 263.837982,243.419814 267.4884,240.6118 C271.138818,237.803786 275.280577,236.3998 279.9138,236.3998 C283.98542,236.3998 287.284787,237.838886 289.812,240.7171 C292.339213,243.595314 293.6028,247.772173 293.6028,253.2478 C293.6028,259.565832 291.918017,266.796359 288.5484,274.9396 C293.883627,274.658799 300.973756,273.605809 309.819,271.7806 L315.5052,270.7276 Z"
                id="Path" />
                <path d="M136.074,335.803 C127.369156,335.803 120.419426,332.644032 115.2246,326.326 C110.029774,320.007968 107.4324,311.724451 107.4324,301.4752 C107.4324,290.243144 110.029774,279.60795 115.2246,269.5693 C120.419426,259.53065 127.334057,251.457731 135.9687,245.3503 C144.603343,239.242869 153.764352,236.1892 163.452,236.1892 C166.540815,236.1892 168.611695,236.785894 169.6647,237.9793 C170.717705,239.172706 171.595196,241.313785 172.2972,244.4026 C175.245615,243.840997 178.334384,243.5602 181.5636,243.5602 C188.443234,243.5602 191.883,246.017175 191.883,250.9312 C191.883,253.879615 190.830011,260.899545 188.724,271.9912 C185.494784,288.137281 183.8802,299.369168 183.8802,305.6872 C183.8802,307.793211 184.406695,309.477994 185.4597,310.7416 C186.512705,312.005206 187.881592,312.637 189.5664,312.637 C192.234013,312.637 195.463181,310.917117 199.254,307.4773 C203.044819,304.037483 208.169368,298.456639 214.6278,290.7346 C216.312608,288.76899 218.207989,287.7862 220.314,287.7862 C222.139209,287.7862 223.578295,288.628592 224.6313,290.3134 C225.684305,291.998208 226.2108,294.314785 226.2108,297.2632 C226.2108,302.879228 224.877013,307.231585 222.2094,310.3204 C216.452971,317.480836 210.345632,323.517975 203.8872,328.432 C197.428768,333.346025 191.18103,335.803 185.1438,335.803 C180.510577,335.803 176.263519,334.223516 172.4025,331.0645 C168.541481,327.905484 165.62821,323.588227 163.6626,318.1126 C156.361763,329.906259 147.165655,335.803 136.074,335.803 Z M143.6556,314.5324 C146.744415,314.5324 149.692786,312.707218 152.5008,309.0568 C155.308814,305.406382 157.344594,300.56263 158.6082,294.5254 L166.4004,255.775 C160.503571,255.915401 155.063125,258.126679 150.0789,262.4089 C145.094675,266.691121 141.128415,272.342165 138.18,279.3622 C135.231585,286.382235 133.7574,293.823361 133.7574,301.6858 C133.7574,306.038222 134.634891,309.267389 136.3899,311.3734 C138.144909,313.479411 140.566785,314.5324 143.6556,314.5324 Z"
                id="Combined-Shape" />
                <path d="M81.318,222.7108 C75.4211705,222.7108 70.9986147,221.341914 68.0502,218.6041 C65.1017853,215.866286 63.6276,212.040425 63.6276,207.1264 C63.6276,202.212375 65.5580807,198.105716 69.4191,194.8063 C73.2801193,191.506884 78.0887712,189.8572 83.8452,189.8572 C89.040026,189.8572 93.2519839,191.120787 96.4812,193.648 C99.7104161,196.175213 101.325,199.755377 101.325,204.3886 C101.325,210.004628 99.4998183,214.462284 95.8494,217.7617 C92.1989817,221.061116 87.3552302,222.7108 81.318,222.7108 Z"
                id="Path" />
                <path d="M119.226,288.2074 C121.051209,288.2074 122.490295,289.084891 123.5433,290.8399 C124.596305,292.594909 125.1228,294.806187 125.1228,297.4738 C125.1228,300.703016 124.631405,303.230191 123.6486,305.0554 C122.665795,306.880609 121.121411,308.495193 119.0154,309.8992 C109.187351,316.357632 96.0600821,325.272943 79.6332,336.6454 C74.1575726,365.848746 67.0674435,388.803916 58.3626,405.5116 C49.6577565,422.219284 38.5662674,430.573 25.0878,430.573 C17.7869635,430.573 11.9253221,428.361722 7.5027,423.9391 C3.08007789,419.516478 0.8688,413.725036 0.8688,406.5646 C0.8688,396.59615 4.72976139,385.960957 12.4518,374.6587 C20.1738386,363.356443 34.7050933,349.421883 56.046,332.8546 L57.5202,322.114 C59.4858098,308.635533 61.0301944,295.367865 62.1534,282.3106 C62.9958042,274.728962 64.3295909,263.426875 66.1548,248.404 C66.7164028,244.33238 68.2607874,241.348909 70.788,239.4535 C73.3152126,237.558091 77.176174,236.6104 82.371,236.6104 C86.5830211,236.6104 89.3558933,237.242194 90.6897,238.5058 C92.0235067,239.769406 92.6904,241.524389 92.6904,243.7708 C92.6904,250.229232 90.3738232,268.059854 85.7406,297.2632 L83.6346,311.7946 C94.8666562,303.370558 105.115754,296.069831 114.3822,289.8922 C116.207409,288.768994 117.821993,288.2074 119.226,288.2074 Z M27.4044,410.1448 C31.0548183,410.1448 35.0561782,406.003041 39.4086,397.7194 C43.7610218,389.435759 47.832581,376.097892 51.6234,357.7054 C40.9529466,366.831446 33.2661235,375.079863 28.5627,382.4509 C23.8592765,389.821937 21.5076,396.315372 21.5076,401.9314 C21.5076,407.407027 23.4731803,410.1448 27.4044,410.1448 Z"
                id="Combined-Shape" />
                <path d="M292.450213,44.9818515 L382.992908,44.9818515 C388.638997,44.9818515 393.216057,49.5589108 393.216057,55.2049996 L393.216057,55.2049996 C393.216057,60.8510884 388.638997,65.4281477 382.992908,65.4281477 L292.450213,65.4281477 C286.804124,65.4281477 282.227065,60.8510884 282.227065,55.2049996 L282.227065,55.2049996 C282.227065,49.5589108 286.804124,44.9818515 292.450213,44.9818515 Z M359.895358,171.253704 C360.025941,171.144935 360.183776,170.99731 360.358733,170.808978 C361.512077,169.567464 362.401937,167.617285 362.632449,165.518283 L378.421806,21.7432834 C378.459629,21.3988677 378.459517,21.3985469 378.347749,21.2844595 C377.908738,20.8363378 376.946888,20.4462961 375.390423,20.4462961 L257.909577,20.4462961 C256.353112,20.4462961 255.391262,20.8363378 254.952251,21.2844595 C254.840483,21.3985469 254.840371,21.3988677 254.878194,21.7432834 L270.667551,165.518283 C270.898063,167.617285 271.787923,169.567464 272.941267,170.808978 C273.116224,170.99731 273.274059,171.144935 273.404642,171.253704 L359.895358,171.253704 Z M359.62127,171.45329 C359.611115,171.457867 359.60133,171.462457 359.591922,171.467055 C359.616469,171.45506 359.646443,171.437724 359.681288,171.414946 L359.62127,171.45329 Z M257.909577,-2.84217094e-14 L375.390423,-2.84217094e-14 C389.80884,-2.84217094e-14 400.319088,10.7283767 398.865718,23.9625 L383.076361,167.7375 C381.622991,180.971623 371.656523,191.7 360.815632,191.7 L272.484368,191.7 C261.643477,191.7 251.677009,180.971623 250.223639,167.7375 L234.434282,23.9625 C232.980912,10.7283767 243.49116,-2.84217094e-14 257.909577,-2.84217094e-14 Z M380.415474,32.8127089 C381.553218,35.5381772 382.947897,39.2968498 384.599511,44.088727 L366.957642,50.9886928 L364.854412,45.2060443 C372.220574,44.5512794 376.159568,40.9520968 376.671393,34.4084966 C376.677142,34.2875689 376.683609,34.1637522 376.690794,34.0370465 C376.714479,33.6194038 376.72707,33.2112913 376.728569,32.8127089 C376.72707,32.4141265 376.714479,32.006014 376.690794,31.5883713 C376.683609,31.4616667 376.677142,31.337851 376.671393,31.2169242 C376.159568,24.6733215 372.220575,21.0741385 364.854412,20.4193735 L366.957642,14.636725 L384.599511,21.5366908 C382.947897,26.328568 381.553218,30.0872407 380.415474,32.8127089 Z M268.102966,20.4977152 C259.739367,21.2411405 255.793906,25.7803648 256.266584,34.1153882 C256.739261,42.4504116 254.103022,38.2836264 248.357867,21.6150326 L265.999735,14.7150667 L268.102966,20.4977152 Z M359.809457,65.5609837 L361.912688,59.7783353 L379.554557,66.6783011 C373.809402,83.3468949 371.173163,87.5136801 371.64584,79.1786567 C372.118517,70.8436333 368.173056,66.304409 359.809457,65.5609837 Z M350.192583,171.145691 C358.588074,171.280573 362.986399,167.178628 363.387559,158.839856 C363.788718,150.501085 365.974968,154.920606 369.946308,172.09842 L351.67984,177.116509 L350.192583,171.145691 Z M283.096951,171.285627 L281.609693,177.256445 L263.343225,172.238355 C267.314566,155.060541 269.500815,150.64102 269.901975,158.979792 C270.303134,167.318563 274.701459,171.420508 283.096951,171.285627 Z"
                id="Rectangle" fillRule="nonzero" />
            </g>
        </g>
    </g>
</svg>
